<svg width="407.22499999999997px" height="153.2px" xmlns="http://www.w3.org/2000/svg" viewBox="46.38750000000002 -1.5999999999999943 407.22499999999997 153.2" style="background: rgb(253, 253, 253);" preserveAspectRatio="xMidYMid"><defs><filter id="editing-extrude-glow"><feFlood flood-color="rgba(73.33333333333334%,80.7843137254902%,86.66666666666669%,0)" result="flood-1"></feFlood><feMorphology operator="erode" radius="1" in="SourceAlpha" result="erode"></feMorphology><feComposite operator="in" in="flood-1" in2="erode" result="comp1"></feComposite><feConvolveMatrix order="3,3" divisor="1" in="comp1" result="convolve" kernelMatrix="0 0 0 1 1 1 0 0 0"></feConvolveMatrix><feOffset dx="-3" dy="0" in="convolve" result="extrude"></feOffset><feComposite operator="in" in="flood-1" in2="extrude" result="comp-extrude"></feComposite><feFlood flood-color="#dce4eb" result="flood-2"></feFlood><feComposite operator="in" in="flood-2" in2="SourceAlpha" result="comp2"></feComposite><feMorphology operator="dilate" radius="1" in="comp2" result="dilate"></feMorphology><feOffset dx="-4.5" dy="0" in="dilate" result="offset"></feOffset><feGaussianBlur in="offset" stdDeviation="5.8" result="blur"></feGaussianBlur><feComponentTransfer in="blur" result="shadow"><feFuncA type="linear" slope="0.8" intercept="-0.2"></feFuncA></feComponentTransfer><feMerge><feMergeNode in="shadow"></feMergeNode><feMergeNode in="comp-extrude"></feMergeNode><feMergeNode in="SourceGraphic"></feMergeNode></feMerge></filter></defs><g filter="url(#editing-extrude-glow)"><g transform="translate(108.55999088287354, 97.27499961853027)"><path d="M6.59-4.93L6.59-4.93L6.59-4.93Q6.59-7.55 8.22-9.25L8.22-9.25L8.22-9.25Q9.86-10.94 12.74-10.94L12.74-10.94L12.74-10.94Q15.62-10.94 17.25-9.25L17.25-9.25L17.25-9.25Q18.88-7.55 18.88-4.93L18.88-4.93L18.88-4.93Q18.88-2.30 17.25-0.61L17.25-0.61L17.25-0.61Q15.62 1.09 12.74 1.09L12.74 1.09L12.74 1.09Q9.86 1.09 8.22-0.61L8.22-0.61L8.22-0.61Q6.59-2.30 6.59-4.93ZM15.17-14.59L8.70-13.31L8.70-13.31Q7.62-13.89 6.66-15.39L6.66-15.39L6.66-15.39Q5.70-16.90 5.70-18.94L5.70-18.94L5.70-18.94Q5.70-20.93 6.75-21.92L6.75-21.92L6.75-21.92Q7.81-22.91 9.86-23.42L9.86-23.42L14.85-24.64L14.85-24.64Q18.05-25.47 18.05-27.71L18.05-27.71L18.05-27.71Q18.05-28.93 16.86-29.82L16.86-29.82L16.86-29.82Q15.68-30.72 12.80-30.72L12.80-30.72L12.80-30.72Q10.18-30.72 7.87-30.05L7.87-30.05L7.87-30.05Q5.57-29.38 4.16-28.48L4.16-28.48L4.16-28.48Q3.07-29.31 2.30-30.50L2.30-30.50L2.30-30.50Q1.54-31.68 1.54-33.34L1.54-33.34L1.54-33.34Q1.54-35.01 2.50-36.26L2.50-36.26L2.50-36.26Q3.46-37.50 5.15-38.30L5.15-38.30L5.15-38.30Q6.85-39.10 9.18-39.49L9.18-39.49L9.18-39.49Q11.52-39.87 14.34-39.87L14.34-39.87L14.34-39.87Q21.89-39.87 25.76-36.51L25.76-36.51L25.76-36.51Q29.63-33.15 29.63-27.71L29.63-27.71L29.63-27.71Q29.63-17.47 15.17-14.59L15.17-14.59ZM47.23-34.05L47.23-0.26L47.23-0.26Q46.53-0.06 45.02 0.13L45.02 0.13L45.02 0.13Q43.52 0.32 42.05 0.32L42.05 0.32L42.05 0.32Q40.58 0.32 39.46 0.10L39.46 0.10L39.46 0.10Q38.34-0.13 37.57-0.70L37.57-0.70L37.57-0.70Q36.80-1.28 36.42-2.30L36.42-2.30L36.42-2.30Q36.03-3.33 36.03-4.99L36.03-4.99L36.03-38.78L36.03-38.78Q36.74-38.91 38.27-39.14L38.27-39.14L38.27-39.14Q39.81-39.36 41.22-39.36L41.22-39.36L41.22-39.36Q42.69-39.36 43.81-39.14L43.81-39.14L43.81-39.14Q44.93-38.91 45.70-38.34L45.70-38.34L45.70-38.34Q46.46-37.76 46.85-36.74L46.85-36.74L46.85-36.74Q47.23-35.71 47.23-34.05L47.23-34.05ZM74.43-4.61L74.43-19.71L74.43-19.71Q74.43-21.70 73.31-22.62L73.31-22.62L73.31-22.62Q72.19-23.55 70.27-23.55L70.27-23.55L70.27-23.55Q68.99-23.55 67.74-23.23L67.74-23.23L67.74-23.23Q66.50-22.91 65.60-22.27L65.60-22.27L65.60-0.06L65.60-0.06Q64.96 0.13 63.58 0.32L63.58 0.32L63.58 0.32Q62.21 0.51 60.74 0.51L60.74 0.51L60.74 0.51Q59.33 0.51 58.21 0.32L58.21 0.32L58.21 0.32Q57.09 0.13 56.32-0.45L56.32-0.45L56.32-0.45Q55.55-1.02 55.14-2.02L55.14-2.02L55.14-2.02Q54.72-3.01 54.72-4.61L54.72-4.61L54.72-23.81L54.72-23.81Q54.72-25.54 55.46-26.62L55.46-26.62L55.46-26.62Q56.19-27.71 57.47-28.61L57.47-28.61L57.47-28.61Q59.65-30.14 62.94-31.10L62.94-31.10L62.94-31.10Q66.24-32.06 70.27-32.06L70.27-32.06L70.27-32.06Q77.50-32.06 81.41-28.90L81.41-28.90L81.41-28.90Q85.31-25.73 85.31-20.10L85.31-20.10L85.31-0.06L85.31-0.06Q84.67 0.13 83.30 0.32L83.30 0.32L83.30 0.32Q81.92 0.51 80.45 0.51L80.45 0.51L80.45 0.51Q79.04 0.51 77.92 0.32L77.92 0.32L77.92 0.32Q76.80 0.13 76.03-0.45L76.03-0.45L76.03-0.45Q75.26-1.02 74.85-2.02L74.85-2.02L74.85-2.02Q74.43-3.01 74.43-4.61L74.43-4.61ZM92.16-4.61L92.16-31.10L92.16-31.10Q92.16-34.37 93.28-36.70L93.28-36.70L93.28-36.70Q94.40-39.04 96.32-40.54L96.32-40.54L96.32-40.54Q98.24-42.05 100.83-42.75L100.83-42.75L100.83-42.75Q103.42-43.46 106.37-43.46L106.37-43.46L106.37-43.46Q111.10-43.46 113.34-42.21L113.34-42.21L113.34-42.21Q115.58-40.96 115.58-37.95L115.58-37.95L115.58-37.95Q115.58-36.67 115.04-35.65L115.04-35.65L115.04-35.65Q114.50-34.62 113.86-34.11L113.86-34.11L113.86-34.11Q112.64-34.43 111.33-34.66L111.33-34.66L111.33-34.66Q110.02-34.88 108.29-34.88L108.29-34.88L108.29-34.88Q105.54-34.88 104-33.95L104-33.95L104-33.95Q102.46-33.02 102.46-30.72L102.46-30.72L102.46-28.67L112.96-28.67L112.96-28.67Q113.34-27.97 113.70-26.91L113.70-26.91L113.70-26.91Q114.05-25.86 114.05-24.58L114.05-24.58L114.05-24.58Q114.05-22.34 113.06-21.34L113.06-21.34L113.06-21.34Q112.06-20.35 110.40-20.35L110.40-20.35L103.04-20.35L103.04-0.06L103.04-0.06Q102.40 0.13 101.02 0.32L101.02 0.32L101.02 0.32Q99.65 0.51 98.18 0.51L98.18 0.51L98.18 0.51Q96.77 0.51 95.65 0.32L95.65 0.32L95.65 0.32Q94.53 0.13 93.76-0.45L93.76-0.45L93.76-0.45Q92.99-1.02 92.58-2.02L92.58-2.02L92.58-2.02Q92.16-3.01 92.16-4.61L92.16-4.61ZM150.34-15.55L150.34-15.55L150.34-15.55Q150.34-11.58 149.12-8.48L149.12-8.48L149.12-8.48Q147.90-5.38 145.70-3.26L145.70-3.26L145.70-3.26Q143.49-1.15 140.42-0.06L140.42-0.06L140.42-0.06Q137.34 1.02 133.57 1.02L133.57 1.02L133.57 1.02Q129.79 1.02 126.72-0.13L126.72-0.13L126.72-0.13Q123.65-1.28 121.44-3.42L121.44-3.42L121.44-3.42Q119.23-5.57 118.02-8.64L118.02-8.64L118.02-8.64Q116.80-11.71 116.80-15.55L116.80-15.55L116.80-15.55Q116.80-19.33 118.02-22.40L118.02-22.40L118.02-22.40Q119.23-25.47 121.44-27.62L121.44-27.62L121.44-27.62Q123.65-29.76 126.72-30.91L126.72-30.91L126.72-30.91Q129.79-32.06 133.57-32.06L133.57-32.06L133.57-32.06Q137.34-32.06 140.42-30.88L140.42-30.88L140.42-30.88Q143.49-29.70 145.70-27.55L145.70-27.55L145.70-27.55Q147.90-25.41 149.12-22.34L149.12-22.34L149.12-22.34Q150.34-19.26 150.34-15.55ZM127.94-15.55L127.94-15.55L127.94-15.55Q127.94-11.65 129.44-9.57L129.44-9.57L129.44-9.57Q130.94-7.49 133.63-7.49L133.63-7.49L133.63-7.49Q136.32-7.49 137.76-9.60L137.76-9.60L137.76-9.60Q139.20-11.71 139.20-15.55L139.20-15.55L139.20-15.55Q139.20-19.39 137.73-21.47L137.73-21.47L137.73-21.47Q136.26-23.55 133.57-23.55L133.57-23.55L133.57-23.55Q130.88-23.55 129.41-21.47L129.41-21.47L129.41-21.47Q127.94-19.39 127.94-15.55ZM161.09-29.82L151.49-29.82L151.49-29.82Q151.04-30.53 150.66-31.74L150.66-31.74L150.66-31.74Q150.27-32.96 150.27-34.30L150.27-34.30L150.27-34.30Q150.27-36.80 151.39-37.89L151.39-37.89L151.39-37.89Q152.51-38.98 154.30-38.98L154.30-38.98L182.21-38.98L182.21-38.98Q182.66-38.27 183.04-37.06L183.04-37.06L183.04-37.06Q183.42-35.84 183.42-34.50L183.42-34.50L183.42-34.50Q183.42-32 182.30-30.91L182.30-30.91L182.30-30.91Q181.18-29.82 179.39-29.82L179.39-29.82L172.29-29.82L172.29-0.26L172.29-0.26Q171.58-0.06 170.08 0.13L170.08 0.13L170.08 0.13Q168.58 0.32 167.10 0.32L167.10 0.32L167.10 0.32Q165.63 0.32 164.51 0.10L164.51 0.10L164.51 0.10Q163.39-0.13 162.62-0.70L162.62-0.70L162.62-0.70Q161.86-1.28 161.47-2.30L161.47-2.30L161.47-2.30Q161.09-3.33 161.09-4.99L161.09-4.99L161.09-29.82ZM200.64 1.02L200.64 1.02L200.64 1.02Q196.86 1.02 193.63-0.03L193.63-0.03L193.63-0.03Q190.40-1.09 188-3.20L188-3.20L188-3.20Q185.60-5.31 184.22-8.51L184.22-8.51L184.22-8.51Q182.85-11.71 182.85-16L182.85-16L182.85-16Q182.85-20.22 184.22-23.26L184.22-23.26L184.22-23.26Q185.60-26.30 187.84-28.26L187.84-28.26L187.84-28.26Q190.08-30.21 192.96-31.14L192.96-31.14L192.96-31.14Q195.84-32.06 198.85-32.06L198.85-32.06L198.85-32.06Q202.24-32.06 205.02-31.04L205.02-31.04L205.02-31.04Q207.81-30.02 209.82-28.22L209.82-28.22L209.82-28.22Q211.84-26.43 212.96-23.94L212.96-23.94L212.96-23.94Q214.08-21.44 214.08-18.50L214.08-18.50L214.08-18.50Q214.08-16.32 212.86-15.17L212.86-15.17L212.86-15.17Q211.65-14.02 209.47-13.70L209.47-13.70L193.66-11.33L193.66-11.33Q194.37-9.22 196.54-8.16L196.54-8.16L196.54-8.16Q198.72-7.10 201.54-7.10L201.54-7.10L201.54-7.10Q204.16-7.10 206.50-7.78L206.50-7.78L206.50-7.78Q208.83-8.45 210.30-9.34L210.30-9.34L210.30-9.34Q211.33-8.70 212.03-7.55L212.03-7.55L212.03-7.55Q212.74-6.40 212.74-5.12L212.74-5.12L212.74-5.12Q212.74-2.24 210.05-0.83L210.05-0.83L210.05-0.83Q208 0.26 205.44 0.64L205.44 0.64L205.44 0.64Q202.88 1.02 200.64 1.02ZM198.85-24.13L198.85-24.13L198.85-24.13Q197.31-24.13 196.19-23.62L196.19-23.62L196.19-23.62Q195.07-23.10 194.37-22.30L194.37-22.30L194.37-22.30Q193.66-21.50 193.31-20.51L193.31-20.51L193.31-20.51Q192.96-19.52 192.90-18.50L192.90-18.50L203.84-20.29L203.84-20.29Q203.65-21.57 202.43-22.85L202.43-22.85L202.43-22.85Q201.22-24.13 198.85-24.13ZM236.86-23.49L236.86-23.49L236.86-23.49Q235.26-23.49 233.82-22.98L233.82-22.98L233.82-22.98Q232.38-22.46 231.33-21.47L231.33-21.47L231.33-21.47Q230.27-20.48 229.63-19.01L229.63-19.01L229.63-19.01Q228.99-17.54 228.99-15.55L228.99-15.55L228.99-15.55Q228.99-11.58 231.26-9.60L231.26-9.60L231.26-9.60Q233.54-7.62 236.80-7.62L236.80-7.62L236.80-7.62Q238.72-7.62 240.13-8.06L240.13-8.06L240.13-8.06Q241.54-8.51 242.62-9.02L242.62-9.02L242.62-9.02Q243.90-8.13 244.54-7.07L244.54-7.07L244.54-7.07Q245.18-6.02 245.18-4.54L245.18-4.54L245.18-4.54Q245.18-1.92 242.69-0.48L242.69-0.48L242.69-0.48Q240.19 0.96 235.78 0.96L235.78 0.96L235.78 0.96Q231.74 0.96 228.48-0.22L228.48-0.22L228.48-0.22Q225.22-1.41 222.88-3.55L222.88-3.55L222.88-3.55Q220.54-5.70 219.26-8.70L219.26-8.70L219.26-8.70Q217.98-11.71 217.98-15.36L217.98-15.36L217.98-15.36Q217.98-19.58 219.36-22.75L219.36-22.75L219.36-22.75Q220.74-25.92 223.10-27.97L223.10-27.97L223.10-27.97Q225.47-30.02 228.58-31.04L228.58-31.04L228.58-31.04Q231.68-32.06 235.14-32.06L235.14-32.06L235.14-32.06Q239.74-32.06 242.24-30.40L242.24-30.40L242.24-30.40Q244.74-28.74 244.74-26.11L244.74-26.11L244.74-26.11Q244.74-24.90 244.16-23.84L244.16-23.84L244.16-23.84Q243.58-22.78 242.82-22.02L242.82-22.02L242.82-22.02Q241.73-22.53 240.19-23.01L240.19-23.01L240.19-23.01Q238.66-23.49 236.86-23.49ZM281.34-19.46L281.34-0.06L281.34-0.06Q280.70 0.13 279.33 0.32L279.33 0.32L279.33 0.32Q277.95 0.51 276.48 0.51L276.48 0.51L276.48 0.51Q275.07 0.51 273.95 0.32L273.95 0.32L273.95 0.32Q272.83 0.13 272.06-0.45L272.06-0.45L272.06-0.45Q271.30-1.02 270.88-2.02L270.88-2.02L270.88-2.02Q270.46-3.01 270.46-4.61L270.46-4.61L270.46-18.82L270.46-18.82Q270.46-21.44 269.15-22.50L269.15-22.50L269.15-22.50Q267.84-23.55 265.92-23.55L265.92-23.55L265.92-23.55Q264.64-23.55 263.49-23.23L263.49-23.23L263.49-23.23Q262.34-22.91 261.63-22.46L261.63-22.46L261.63-0.06L261.63-0.06Q260.99 0.13 259.62 0.32L259.62 0.32L259.62 0.32Q258.24 0.51 256.77 0.51L256.77 0.51L256.77 0.51Q255.36 0.51 254.24 0.32L254.24 0.32L254.24 0.32Q253.12 0.13 252.35-0.45L252.35-0.45L252.35-0.45Q251.58-1.02 251.17-2.02L251.17-2.02L251.17-2.02Q250.75-3.01 250.75-4.61L250.75-4.61L250.75-41.73L250.75-41.73Q251.46-41.86 252.83-42.08L252.83-42.08L252.83-42.08Q254.21-42.30 255.62-42.30L255.62-42.30L255.62-42.30Q257.02-42.30 258.14-42.11L258.14-42.11L258.14-42.11Q259.26-41.92 260.03-41.34L260.03-41.34L260.03-41.34Q260.80-40.77 261.22-39.78L261.22-39.78L261.22-39.78Q261.63-38.78 261.63-37.18L261.63-37.18L261.63-30.91L261.63-30.91Q262.46-31.23 264.16-31.65L264.16-31.65L264.16-31.65Q265.86-32.06 267.90-32.06L267.90-32.06L267.90-32.06Q274.24-32.06 277.79-28.90L277.79-28.90L277.79-28.90Q281.34-25.73 281.34-19.46L281.34-19.46Z" fill="rgba(0%,59.183673469387756%,100%,0)"></path></g></g><style>text {
  font-size: 64px;
  font-family: Arial Black;
  dominant-baseline: central;
  text-anchor: middle;
}</style></svg>